[img]http://i.imgur.com/CVBao.jpg[/img]

[code]

Hit.And.Run.2012.720p.BDRip.XViD.AC3-26k
 
http://www.imdb.com/title/tt2097307/

Plot:

Former getaway driver Charlie Bronson jeopardizes his Witness Protection Plan identity in order to help his girlfriend 
get to Los Angeles. The feds and Charlie's former gang chase them on the road.


Sources - VIDEO: Hit.And.Run.2012.1080p.BluRay.AVC.DTS-HD.MA.5.1-DON ..... thanks .... :P
          AUDIO: Hit.And.Run.2012.1080p.BluRay.AVC.DTS-HD.MA.5.1-DON ..... thanks .... :P

 
Format                                   : AVI
Format/Info                              : Audio Video Interleave
Format profile                           : OpenDML
File size                                : 2.90 GiB
Duration                                 : 1h 40mn
Overall bit rate                         : 4 150 Kbps
Writing library                          : VirtualDub build 32839/release

Video
ID                                       : 0
Format                                   : MPEG-4 Visual
Format profile                           : Advanced Simple@L5
Format settings, BVOP                    : 2
Format settings, QPel                    : No
Format settings, GMC                     : No warppoints
Format settings, Matrix                  : Default (H.263)
Codec ID                                 : XVID
Codec ID/Hint                            : XviD
Duration                                 : 1h 40mn
Bit rate                                 : 3 499 Kbps
Width                                    : 1 280 pixels
Height                                   : 528 pixels
Display aspect ratio                     : 2.40:1
Frame rate                               : 24.000 fps
Color space                              : YUV
Chroma subsampling                       : 4:2:0
Bit depth                                : 8 bits
Scan type                                : Progressive
Compression mode                         : Lossy
Bits/(Pixel*Frame)                       : 0.216
Stream size                              : 2.45 GiB (84%)
Writing library                          : XviD 1.2.1 (UTC 2008-12-04)

Audio
ID                                       : 1
Format                                   : AC-3
Format/Info                              : Audio Coding 3
Mode extension                           : CM (complete main)
Format settings, Endianness              : Big
Codec ID                                 : 2000
Duration                                 : 1h 40mn
Bit rate mode                            : Constant
Bit rate                                 : 640 Kbps
Channel(s)                               : 6 channels
Channel positions                        : Front: L C R, Side: L R, LFE
Sampling rate                            : 48.0 KHz
Bit depth                                : 16 bits
Compression mode                         : Lossy
Stream size                              : 458 MiB (15%)
Alignment                                : Split accross interleaves
Interleave, duration                     : 42 ms (1.00 video frame)
Interleave, preload duration             : 500 ms

Notes -

Took the BD made a script to make magic happen and this is the outcome.. enjoy

[/code]

Screens:

[img]http://i.imgur.com/LHdxv.png[/img]
[img]http://i.imgur.com/d9EZG.jpg[/img]
[img]http://i.imgur.com/DxO9V.png[/img]
[img]http://i.imgur.com/d4xmv.jpg[/img]
[img]http://i.imgur.com/JSHCI.jpg[/img]
[img]http://imageshack.us/a/img14/9336/75406076.png[/img]
[img]http://imageshack.us/a/img255/7606/41079808.png[/img]
[img]http://imageshack.us/a/img22/5450/98801062.png[/img]
[img]http://imageshack.us/a/img16/3214/27698141.png[/img]
[img]http://imageshack.us/a/img705/7236/66514395.png[/img]

Greetz:
XtremeEncode|CM8|RX|VISION|HDSCENE|xTriLL|ADTRG|CRYS|REMIXHD|HS|Tommiecook
BIDA|RX|REFILL|INSPiRAL|AXED|HOPE|Anonymous|GooN|NOIR|Blackjesus|Gabroo Punjab Deh
|UNiQUE|RESiSTANCE|TRiNiTY|LEGION

To all the people who have helped me, you know who you are

Anything to offer email us @: 26k@hushmail.me 